<?xml version="1.0" encoding="utf-8"?>
<!-- Generator: Adobe Illustrator 16.0.0, SVG Export Plug-In . SVG Version: 6.00 Build 0)  -->
<!DOCTYPE svg PUBLIC "-//W3C//DTD SVG 1.1//EN" "http://www.w3.org/Graphics/SVG/1.1/DTD/svg11.dtd">
<svg version="1.1" id="Layer_1" xmlns="http://www.w3.org/2000/svg" xmlns:xlink="http://www.w3.org/1999/xlink" x="0px" y="0px"
	 width="444.758px" height="500px" viewBox="0 0 444.758 500" enable-background="new 0 0 444.758 500" xml:space="preserve">
<path fill="#C23118" d="M329.993,373.724c-8.838-21.463-33.489-31.734-54.951-22.896c-21.463,8.838-31.734,33.486-22.897,54.951
	c4.281,10.396,12.354,18.504,22.733,22.828c5.218,2.174,10.702,3.262,16.19,3.262c5.428,0,10.855-1.064,16.025-3.193
	c10.396-4.281,18.504-12.354,22.83-22.73C334.25,395.564,334.275,384.121,329.993,373.724z"/>
<path fill="#AD2D13" d="M329.993,373.724c-8.838-21.463-33.489-31.734-54.951-22.896c-0.882,0.363-1.737,0.764-2.58,1.178
	c8.896,4.367,16.299,11.857,20.359,21.721c4.278,10.395,4.257,21.838-0.067,32.219c-3.963,9.51-11.105,17.074-20.271,21.568
	c0.784,0.387,1.582,0.758,2.396,1.098c5.218,2.174,10.702,3.26,16.19,3.26c5.428,0,10.855-1.063,16.025-3.191
	c10.396-4.281,18.504-12.354,22.83-22.732C334.25,395.564,334.275,384.121,329.993,373.724z"/>
<path fill="#F39619" d="M379.675,320.76c-16.413-16.41-43.118-16.41-59.531,0.002c-16.41,16.412-16.41,43.117,0,59.529h0.001
	c8.206,8.205,18.984,12.309,29.766,12.309s21.561-4.104,29.766-12.309C396.087,363.879,396.087,337.174,379.675,320.76z"/>
<path fill="#D78715" d="M379.675,320.76c-13.059-13.057-32.629-15.713-48.351-7.992c4.037,1.984,7.825,4.641,11.179,7.992
	c16.413,16.414,16.413,43.119,0.001,59.531c-3.354,3.354-7.142,6.01-11.18,7.992c5.843,2.869,12.211,4.316,18.585,4.316
	c10.78,0,21.561-4.105,29.766-12.311C396.087,363.879,396.087,337.174,379.675,320.76z"/>
<path fill="#C23118" d="M405.007,253.701L405.007,253.701c-10.376-4.334-21.814-4.369-32.218-0.098
	c-10.4,4.271-18.516,12.338-22.85,22.713c-4.337,10.373-4.369,21.814-0.101,32.217c4.271,10.4,12.338,18.516,22.711,22.85
	c5.229,2.184,10.728,3.275,16.228,3.275c5.416,0,10.833-1.059,15.99-3.178c10.4-4.27,18.518-12.338,22.852-22.711
	C436.568,287.351,426.424,262.648,405.007,253.701z"/>
<path fill="#AD2D13" d="M405.007,253.701L405.007,253.701c-10.376-4.334-21.814-4.369-32.218-0.098
	c-0.884,0.361-1.744,0.764-2.593,1.18c19.785,9.727,28.861,33.375,20.252,53.984c-3.966,9.494-11.104,17.045-20.258,21.533
	c0.772,0.381,1.559,0.746,2.358,1.082c5.229,2.184,10.728,3.273,16.228,3.273c5.416,0,10.833-1.059,15.99-3.178
	c10.4-4.271,18.518-12.338,22.852-22.711C436.568,287.351,426.424,262.648,405.007,253.701z"/>
<path fill="#F39619" d="M402.714,180.951c-23.211,0-42.094,18.883-42.094,42.094c0,23.211,18.883,42.093,42.094,42.093
	s42.094-18.882,42.094-42.093S425.925,180.951,402.714,180.951z"/>
<path fill="#D78715" d="M402.714,180.951c-6.669,0-12.977,1.566-18.586,4.338c13.913,6.877,23.508,21.215,23.508,37.756
	s-9.595,30.878-23.508,37.755c5.609,2.773,11.917,4.338,18.586,4.338c23.211,0,42.094-18.882,42.094-42.093
	C444.808,199.834,425.925,180.951,402.714,180.951z"/>
<path fill="#C23118" d="M428.06,138.379c-8.838-21.463-33.487-31.735-54.949-22.896c-21.464,8.838-31.734,33.487-22.897,54.95
	c6.688,16.237,22.419,26.067,38.979,26.067c5.327,0,10.747-1.02,15.973-3.171C426.626,184.49,436.897,159.842,428.06,138.379z"/>
<path fill="#AD2D13" d="M428.06,138.379c-8.837-21.463-33.487-31.735-54.949-22.896c-0.884,0.363-1.737,0.762-2.579,1.177
	c8.895,4.368,16.299,11.858,20.357,21.72c8.477,20.582-0.632,44.088-20.32,53.775c5.75,2.824,12.122,4.346,18.624,4.346
	c5.327,0,10.747-1.02,15.973-3.171C426.626,184.49,436.897,159.842,428.06,138.379z"/>
<path fill="#F39619" d="M379.675,65.8c-16.413-16.413-43.119-16.412-59.53,0c-0.001,0-0.001,0-0.001,0
	c-16.41,16.412-16.41,43.117,0.001,59.531c8.206,8.205,18.984,12.309,29.766,12.309s21.561-4.103,29.766-12.309
	C396.087,108.917,396.087,82.212,379.675,65.8z"/>
<path fill="#D78715" d="M379.675,65.8c-13.059-13.059-32.63-15.715-48.352-7.993c4.038,1.982,7.826,4.64,11.18,7.993
	c16.413,16.412,16.413,43.117,0.001,59.53c-3.354,3.354-7.142,6.01-11.18,7.993c5.843,2.869,12.211,4.315,18.585,4.315
	c10.78,0,21.561-4.103,29.766-12.309C396.087,108.917,396.087,82.212,379.675,65.8z"/>
<path fill="#C23118" d="M330.865,40.703c-4.271-10.4-12.338-18.516-22.712-22.85c-10.376-4.336-21.818-4.368-32.22-0.098
	c-10.398,4.271-18.516,12.337-22.85,22.712c-8.947,21.418,1.197,46.12,22.614,55.067c5.228,2.184,10.725,3.275,16.225,3.275
	c5.416,0,10.831-1.06,15.992-3.179c10.4-4.271,18.516-12.338,22.85-22.712C335.102,62.546,335.136,51.104,330.865,40.703z"/>
<path fill="#AD2D13" d="M330.865,40.703c-4.271-10.4-12.338-18.516-22.712-22.85c-10.376-4.336-21.818-4.368-32.22-0.098
	c-0.884,0.363-1.742,0.763-2.592,1.18c9.233,4.53,16.41,12.173,20.353,21.769c4.271,10.4,4.234,21.842-0.101,32.218
	c-3.966,9.494-11.104,17.044-20.257,21.533c0.773,0.38,1.557,0.746,2.361,1.082c5.228,2.184,10.725,3.276,16.225,3.276
	c5.416,0,10.832-1.06,15.992-3.179c10.4-4.271,18.516-12.338,22.85-22.712C335.102,62.546,335.136,51.104,330.865,40.703z"/>
<path fill="#F39619" d="M222.428,0.666c-23.211,0-42.094,18.883-42.094,42.094s18.883,42.094,42.094,42.094
	s42.096-18.883,42.096-42.094S245.641,0.666,222.428,0.666z"/>
<path fill="#C23118" d="M192.713,40.312c-8.839-21.463-33.488-31.734-54.951-22.897c-10.396,4.281-18.504,12.354-22.83,22.732
	c-4.325,10.379-4.349,21.82-0.068,32.218c4.282,10.396,12.354,18.504,22.733,22.829c5.217,2.174,10.701,3.261,16.189,3.261
	c5.428,0,10.857-1.064,16.027-3.193c10.396-4.28,18.504-12.354,22.828-22.732C196.971,62.151,196.993,50.708,192.713,40.312z"/>
<path fill="#D78715" d="M222.428,0.666c-6.669,0-12.977,1.566-18.586,4.338c13.913,6.877,23.509,21.215,23.509,37.756
	s-9.596,30.879-23.509,37.756c5.609,2.772,11.917,4.338,18.586,4.338c23.211,0,42.096-18.883,42.096-42.094
	S245.641,0.666,222.428,0.666z"/>
<path fill="#AD2D13" d="M192.713,40.312c-8.839-21.463-33.488-31.734-54.951-22.897c-0.88,0.362-1.736,0.762-2.582,1.177
	c8.896,4.368,16.301,11.858,20.361,21.72c4.279,10.396,4.257,21.838-0.068,32.218c-3.961,9.51-11.105,17.074-20.271,21.568
	c0.785,0.386,1.582,0.757,2.396,1.097c5.217,2.174,10.702,3.261,16.189,3.261c5.428,0,10.857-1.064,16.027-3.193
	c10.396-4.28,18.504-12.354,22.828-22.732C196.971,62.151,196.993,50.708,192.713,40.312z"/>
<path fill="#AD2D13" d="M192.713,40.312c-8.839-21.463-33.488-31.734-54.951-22.897c-0.88,0.362-1.736,0.762-2.582,1.177
	c8.896,4.368,16.301,11.858,20.361,21.72c4.279,10.396,4.257,21.838-0.068,32.218c-3.961,9.51-11.105,17.074-20.271,21.568
	c0.785,0.386,1.582,0.757,2.396,1.097c5.217,2.174,10.702,3.261,16.189,3.261c5.428,0,10.857-1.064,16.027-3.193
	c10.396-4.28,18.504-12.354,22.828-22.732C196.971,62.151,196.993,50.708,192.713,40.312z"/>
<path fill="#F39619" d="M124.714,65.8c-7.951-7.951-18.521-12.329-29.765-12.329c-11.244,0-21.814,4.379-29.764,12.329
	c-7.952,7.951-12.331,18.521-12.331,29.765c0,11.244,4.379,21.814,12.33,29.765c8.207,8.206,18.986,12.31,29.765,12.31
	c10.779,0,21.559-4.103,29.765-12.31C141.125,108.917,141.125,82.212,124.714,65.8z"/>
<path fill="#D78715" d="M124.714,65.8c-7.951-7.951-18.521-12.329-29.765-12.329c-6.554,0-12.875,1.498-18.586,4.313
	c4.087,2.015,7.863,4.699,11.18,8.016c16.412,16.412,16.412,43.117,0,59.53c-3.354,3.354-7.142,6.01-11.18,7.993
	c5.843,2.869,12.212,4.316,18.586,4.316c10.779,0,21.559-4.103,29.765-12.31C141.125,108.917,141.125,82.212,124.714,65.8z"/>
<path fill="#C23118" d="M72.305,114.707L72.305,114.707c-10.375-4.334-21.816-4.369-32.218-0.098s-18.516,12.338-22.85,22.712
	c-8.948,21.417,1.197,46.12,22.614,55.067c5.228,2.184,10.725,3.276,16.225,3.276c5.416,0,10.831-1.06,15.992-3.179
	c10.4-4.271,18.516-12.338,22.85-22.712C103.865,148.358,93.721,123.656,72.305,114.707z"/>
<path fill="#AD2D13" d="M72.305,114.707L72.305,114.707c-10.375-4.334-21.816-4.369-32.218-0.098
	c-0.884,0.362-1.744,0.763-2.593,1.18c19.785,9.726,28.863,33.374,20.252,53.985c-3.966,9.494-11.104,17.044-20.257,21.533
	c0.773,0.38,1.557,0.746,2.361,1.082c5.228,2.184,10.725,3.276,16.225,3.276c5.416,0,10.831-1.06,15.992-3.179
	c10.4-4.271,18.516-12.338,22.85-22.712C103.865,148.358,93.721,123.656,72.305,114.707z"/>
<path fill="#F39619" d="M42.144,180.951c-23.211,0-42.094,18.883-42.094,42.094c0,23.211,18.883,42.093,42.094,42.093
	s42.094-18.882,42.094-42.093S65.354,180.951,42.144,180.951z"/>
<path fill="#D78715" d="M42.144,180.951c-6.669,0-12.978,1.566-18.586,4.338c13.913,6.877,23.508,21.215,23.508,37.756
	s-9.596,30.878-23.508,37.755c5.609,2.773,11.917,4.338,18.586,4.338c23.211,0,42.094-18.882,42.094-42.093
	C84.238,199.834,65.354,180.951,42.144,180.951z"/>
<path fill="#C23118" d="M94.646,275.66c-8.838-21.463-33.485-31.736-54.951-22.896c-21.463,8.836-31.734,33.486-22.897,54.949
	c6.686,16.236,22.419,26.068,38.979,26.068c5.33-0.002,10.747-1.02,15.973-3.172c10.396-4.281,18.504-12.354,22.83-22.732
	C98.903,297.498,98.927,286.054,94.646,275.66z"/>
<path fill="#AD2D13" d="M94.646,275.66c-8.838-21.463-33.485-31.736-54.951-22.896c-0.881,0.363-1.736,0.762-2.578,1.178
	c8.895,4.367,16.298,11.857,20.358,21.719c4.28,10.396,4.257,21.838-0.068,32.219c-3.96,9.502-11.098,17.063-20.254,21.559
	c5.75,2.824,12.121,4.346,18.623,4.346c5.33,0,10.746-1.02,15.973-3.17c10.396-4.281,18.504-12.354,22.83-22.732
	C98.903,297.498,98.927,286.054,94.646,275.66z"/>
<path fill="#F39619" d="M124.714,320.76c-16.414-16.412-43.117-16.412-59.531,0h0.001c-7.952,7.951-12.331,18.521-12.331,29.766
	s4.379,21.814,12.33,29.764c8.207,8.207,18.986,12.311,29.765,12.311c10.779,0,21.559-4.104,29.765-12.311
	C141.125,363.879,141.125,337.174,124.714,320.76z"/>
<path fill="#D78715" d="M124.714,320.76c-13.06-13.059-32.63-15.715-48.352-7.992c4.038,1.982,7.826,4.639,11.18,7.992
	c16.412,16.414,16.412,43.117,0,59.529c-3.354,3.355-7.142,6.012-11.18,7.994c5.843,2.869,12.212,4.316,18.586,4.316
	c10.779,0,21.559-4.105,29.765-12.313C141.125,363.879,141.125,337.174,124.714,320.76z"/>
<path fill="#C23118" d="M169.159,350.554c-21.419-8.947-46.119,1.199-55.067,22.615c-8.947,21.416,1.198,46.119,22.614,55.066
	c5.287,2.207,10.771,3.252,16.171,3.252c16.479,0,32.157-9.736,38.896-25.865l0,0C200.721,384.205,190.575,359.504,169.159,350.554z
	"/>
<path fill="#AD2D13" d="M169.159,350.554c-11.646-4.865-24.261-4.074-34.787,1.094c19.771,9.732,28.839,33.371,20.229,53.975l0,0
	c-4.08,9.771-11.443,17.188-20.274,21.523c0.778,0.383,1.567,0.752,2.379,1.092c5.287,2.207,10.771,3.252,16.171,3.252
	c16.479,0,32.157-9.736,38.896-25.865v-0.002C200.721,384.205,190.575,359.504,169.159,350.554z"/>
<path fill="#607E87" d="M221.827,382.715c-32.521,0-58.976,26.457-58.976,58.977s26.455,58.977,58.976,58.977
	c32.52,0,58.976-26.457,58.976-58.977S254.346,382.715,221.827,382.715z"/>
<path fill="#232E40" d="M221.827,382.715c-6.813,0-13.354,1.176-19.448,3.313c22.989,8.055,39.527,29.959,39.527,55.664
	c0,25.707-16.538,47.607-39.527,55.666c6.094,2.135,12.635,3.311,19.448,3.311c32.52,0,58.976-26.457,58.976-58.977
	S254.346,382.715,221.827,382.715z"/>
<path fill="#A5CCC3" d="M221.827,415.193c-14.61,0-26.497,11.887-26.497,26.496c0,14.611,11.887,26.498,26.497,26.498
	c14.607,0,26.496-11.887,26.496-26.498C248.323,427.08,236.438,415.193,221.827,415.193z"/>
</svg>
