<?xml version="1.0" encoding="utf-8"?>
<!-- Generator: Adobe Illustrator 16.0.0, SVG Export Plug-In . SVG Version: 6.00 Build 0)  -->
<!DOCTYPE svg PUBLIC "-//W3C//DTD SVG 1.1//EN" "http://www.w3.org/Graphics/SVG/1.1/DTD/svg11.dtd">
<svg version="1.1" id="Capa_1" xmlns="http://www.w3.org/2000/svg" xmlns:xlink="http://www.w3.org/1999/xlink" x="0px" y="0px"
	 width="500px" height="500px" viewBox="0 0 500 500" enable-background="new 0 0 500 500" xml:space="preserve">
<polygon fill="#607E87" points="171.053,219.889 83.333,219.889 76.158,298.838 178.229,298.838 "/>
<polygon fill="#607E87" points="65.79,412.871 188.598,412.871 183.018,351.469 71.369,351.469 "/>
<polygon fill="#607E87" points="74.563,316.381 72.965,333.926 181.421,333.926 179.825,316.381 "/>
<polygon fill="#A5CCC3" points="71.369,351.469 183.018,351.469 181.421,333.926 72.965,333.926 "/>
<polygon fill="#A5CCC3" points="178.229,298.838 76.158,298.838 74.563,316.381 179.825,316.381 "/>
<path fill="#232E40" d="M416.667,176.03H311.404c-9.649,0-17.544-7.895-17.544-17.544l0,0c0-9.649,7.895-17.543,17.544-17.543
	h105.264c9.648,0,17.544,7.895,17.544,17.543l0,0C434.211,168.135,426.316,176.03,416.667,176.03z"/>
<path fill="#A5CCC3" d="M167.79,26.907h-14.281V12.627c0-6.649-5.386-12.035-12.034-12.035h-28.554
	c-6.657,0-12.044,5.386-12.044,12.035v14.281H86.598c-6.649,0-12.035,5.386-12.035,12.035v19.781
	c0,6.658,5.386,12.043,12.035,12.043h14.279v26.316h52.632V70.766h14.281c6.649,0,12.035-5.386,12.035-12.035V38.943
	C179.825,32.294,174.438,26.907,167.79,26.907z"/>
<path fill="#607E87" d="M179.825,176.03H74.563l-14.01-63.044c-1.816-8.167,4.396-15.903,12.754-15.903h107.772
	c8.358,0,14.569,7.737,12.754,15.903L179.825,176.03z"/>
<polygon fill="#232E40" points="425.438,412.871 302.631,412.871 320.176,219.889 407.895,219.889 "/>
<path fill="#607E87" d="M416.667,465.504H311.404c-14.535,0-26.315-11.781-26.315-26.316l0,0c0-14.535,11.78-26.314,26.315-26.314
	h105.264c14.535,0,26.315,11.779,26.315,26.314l0,0C442.983,453.722,431.202,465.504,416.667,465.504z"/>
<path fill="#232E40" d="M451.754,500.592H276.317c-9.693,0-17.545-7.852-17.545-17.545l0,0c0-9.693,7.852-17.543,17.545-17.543
	h175.438c9.693,0,17.544,7.85,17.544,17.543l0,0C469.298,492.74,461.448,500.592,451.754,500.592z"/>
<path fill="#607E87" d="M421.053,219.889H307.018c-12.113,0-21.93-9.816-21.93-21.93l0,0c0-12.114,9.814-21.93,21.93-21.93h114.035
	c12.114,0,21.931,9.816,21.931,21.93l0,0C442.983,210.073,433.167,219.889,421.053,219.889z"/>
<path fill="#A5CCC3" d="M184.21,219.889H70.175c-12.114,0-21.93-9.816-21.93-21.93l0,0c0-12.114,9.815-21.93,21.93-21.93H184.21
	c12.114,0,21.931,9.816,21.931,21.93l0,0C206.141,210.073,196.325,219.889,184.21,219.889z"/>
<path fill="#A5CCC3" d="M179.825,465.504H74.563c-14.535,0-26.316-11.781-26.316-26.316l0,0c0-14.535,11.781-26.314,26.316-26.314
	h105.263c14.534,0,26.315,11.779,26.315,26.314l0,0C206.141,453.722,194.36,465.504,179.825,465.504z"/>
<path fill="#607E87" d="M214.912,500.592H39.475c-9.693,0-17.545-7.852-17.545-17.545l0,0c0-9.693,7.852-17.543,17.545-17.543
	h175.438c9.693,0,17.544,7.85,17.544,17.543l0,0C232.456,492.74,224.606,500.592,214.912,500.592z"/>
<path fill="#607E87" d="M442.983,44.45l-24.956,41.588c-0.843,1.412-2.368,2.271-4.01,2.271h-26.736
	c-2.947,0-5.166-2.702-4.587-5.596l7.656-38.264h-52.63l7.648,38.264c0.579,2.895-1.631,5.596-4.579,5.596h-26.736
	c-1.641,0-3.167-0.86-4.009-2.271L285.088,44.45H250l43.859,96.492h140.352l43.859-96.492H442.983z"/>
</svg>
