<?xml version="1.0" encoding="utf-8"?>
<!-- Generator: Adobe Illustrator 16.0.0, SVG Export Plug-In . SVG Version: 6.00 Build 0)  -->
<!DOCTYPE svg PUBLIC "-//W3C//DTD SVG 1.1//EN" "http://www.w3.org/Graphics/SVG/1.1/DTD/svg11.dtd">
<svg version="1.1" id="Calque_1" xmlns="http://www.w3.org/2000/svg" xmlns:xlink="http://www.w3.org/1999/xlink" x="0px" y="0px"
	 width="576.539px" height="498.793px" viewBox="0 0 576.539 498.793" enable-background="new 0 0 576.539 498.793"
	 xml:space="preserve">
<g id="Calque_2_1_">
	<g>
		<g>
			<path fill="#607E87" d="M300.185,451.719c0.006-0.006,0.006-0.006,0.006-0.006c21.531,1.078,40.965-11.814,48.342-32.072
				c32.973-90.721,20.328-193.608-33.822-275.229C260.562,62.791,170.68,11.144,74.271,6.262
				c-10.766-0.539-21.004,2.403-29.475,8.024c-8.471,5.62-15.17,13.915-18.866,24.047C-7.037,129.052,5.609,231.939,59.757,313.561
				C113.908,395.176,203.786,446.826,300.185,451.719z"/>
		</g>
		<g>
			<path fill="#232E40" d="M329.844,443.541c8.385-5.617,15.029-13.844,18.689-23.9c32.973-90.721,20.328-193.608-33.822-275.229
				C260.562,62.791,170.68,11.144,74.271,6.262c-10.688-0.535-20.847,2.375-29.284,7.917L329.844,443.541L329.844,443.541z"/>
		</g>
		<g>
			<g>
				<path fill="#B9AF8A" d="M133.818,148.47c3.708-2.457,8.699-1.449,11.16,2.26l97.93,147.602
					c2.457,3.711,1.449,8.703-2.259,11.164c-3.709,2.457-8.701,1.447-11.159-2.26l-97.929-147.603
					C129.099,155.926,130.109,150.932,133.818,148.47z"/>
			</g>
		</g>
		<g>
			<g>
				<path fill="#E5D6A7" d="M162.655,235.631l40.255-26.709c3.709-2.457,8.699-1.449,11.161,2.26c2.46,3.709,1.45,8.699-2.257,11.16
					l-40.256,26.707c-3.709,2.459-8.7,1.45-11.161-2.258C157.936,243.082,158.945,238.09,162.655,235.631z"/>
			</g>
		</g>
		<g>
			<g>
				<path fill="#E5D6A7" d="M180.459,262.465l40.256-26.708c3.709-2.457,8.7-1.447,11.161,2.264
					c2.459,3.707,1.449,8.695-2.258,11.158l-40.257,26.706c-3.708,2.463-8.7,1.451-11.16-2.258
					C175.741,269.92,176.752,264.928,180.459,262.465z"/>
			</g>
		</g>
		<g>
			<g>
				<path fill="#E5D6A7" d="M144.85,208.793l40.255-26.707c3.711-2.461,8.701-1.451,11.162,2.259c2.46,3.709,1.45,8.701-2.259,11.16
					l-40.255,26.706c-3.709,2.463-8.701,1.451-11.162-2.258C140.132,216.244,141.142,211.252,144.85,208.793z"/>
			</g>
		</g>
		<g>
			<g>
				<path fill="#E5D6A7" d="M198.264,289.305l40.258-26.709c3.707-2.459,8.697-1.451,11.159,2.258
					c2.459,3.709,1.45,8.701-2.257,11.16l-40.258,26.707c-3.707,2.461-8.699,1.449-11.161-2.26
					C193.547,296.756,194.556,291.762,198.264,289.305z"/>
			</g>
		</g>
		<g>
			<g>
				<path fill="#E5D6A7" d="M127.045,181.955l40.255-26.707c3.708-2.459,8.701-1.45,11.16,2.258c2.46,3.71,1.451,8.701-2.257,11.16
					l-40.256,26.709c-3.709,2.459-8.7,1.449-11.161-2.26C122.327,189.406,123.336,184.416,127.045,181.955z"/>
			</g>
		</g>
		<g>
			<path fill="#E5D6A7" d="M220.126,52.562L11.9,190.709c-1.928-12.008-3.143-24.098-3.65-36.229L188.163,35.119
				C199.145,40.301,209.812,46.118,220.126,52.562z"/>
		</g>
		<g>
			<path fill="#E5D6A7" d="M362.566,267.262L154.34,405.406c10.313,6.443,20.981,12.266,31.96,17.447L366.215,303.49
				C365.707,291.36,364.494,279.268,362.566,267.262z"/>
		</g>
		<g>
			<path fill="#B9AF8A" d="M116.197,121.513l103.929-68.951c-10.313-6.442-20.982-12.263-31.963-17.443L98.392,94.677
				L116.197,121.513L116.197,121.513z"/>
		</g>
		<g>
			<path fill="#B9AF8A" d="M276.442,363.049l89.773-59.559c-0.508-12.131-1.721-24.223-3.648-36.229l-103.929,68.949
				L276.442,363.049L276.442,363.049z"/>
		</g>
	</g>
</g>
<g id="Layer_1_2_">
	<g>
		<path fill="#E5D6A7" d="M582.254,3.138c-1.844-1.844-4.533-2.563-7.051-1.9L389.445,50.356c-1.676,0.443-3.141,1.467-4.133,2.887
			l-25.983,37.21c-0.81,1.16-1.267,2.527-1.313,3.939l-1.387,40.023l-34.553,5.998c-1.787,0.309-3.396,1.272-4.516,2.701
			l-39.621,50.627c-2.125,2.715-2.067,6.545,0.138,9.195l15.752,18.93l-38.976,3.922c-1.97,0.197-3.774,1.188-5.004,2.736
			l-83.921,105.858c-2.31,2.914-2.069,7.1,0.56,9.729l74.79,74.791c1.422,1.42,3.296,2.143,5.18,2.143
			c1.583,0,3.172-0.51,4.503-1.549l281.501-219.649c1.262-0.984,2.166-2.354,2.574-3.9L584.156,10.19
			C584.82,7.667,584.097,4.983,582.254,3.138z"/>
		<path fill="#CBC096" d="M582.254,3.138c-1.844-1.844-4.533-2.563-7.051-1.9l-31.627,8.363L498.67,179.432L219.576,397.201
			l21.701,21.701c1.422,1.42,3.296,2.143,5.18,2.143c1.583,0,3.172-0.51,4.503-1.549l281.501-219.65
			c1.262-0.983,2.166-2.354,2.574-3.899l49.119-185.759C584.82,7.667,584.097,4.983,582.254,3.138z"/>
		<path fill="#9E9677" d="M192.184,400.528c-1.874,0-3.748-0.715-5.178-2.143c-2.859-2.861-2.859-7.496,0-10.355l260.123-260.122
			c2.861-2.856,7.496-2.856,10.355,0c2.857,2.861,2.857,7.496,0,10.355L197.361,398.385
			C195.931,399.813,194.057,400.528,192.184,400.528z"/>
		<path fill="#3E3D42" d="M213.303,426.088l-54.001-54.002c-1.374-1.373-3.235-2.143-5.178-2.143c-1.941,0-3.804,0.771-5.178,2.143
			l-50.035,50.035c-17.744,17.744-17.744,46.615,0,64.359c8.872,8.871,20.525,13.307,32.179,13.307
			c11.654,0,23.307-4.436,32.179-13.307l50.035-50.035C216.162,433.584,216.162,428.949,213.303,426.088z"/>
		<path fill="#2D2D30" d="M213.303,426.088l-22.762-22.762c0.264,2.158-0.428,4.412-2.083,6.068l-50.035,50.035
			c-8.872,8.869-20.525,13.309-32.179,13.309c-6.22,0-12.435-1.277-18.231-3.805c2.167,6.416,5.795,12.441,10.899,17.547
			c8.872,8.871,20.525,13.309,32.179,13.309c11.654,0,23.307-4.438,32.179-13.309l50.035-50.035
			C216.162,433.584,216.162,428.949,213.303,426.088z"/>
		<g>
			
				<rect x="112.022" y="420.535" transform="matrix(-0.7071 -0.7071 0.7071 -0.7071 -33.6227 841.7864)" fill="#C23118" width="91.012" height="14.643"/>
			<path fill="#C23118" d="M106.323,414.709l-7.413,7.412c-0.993,0.994-1.92,2.025-2.802,3.084l64.077,64.076
				c1.059-0.881,2.09-1.809,3.083-2.801l7.414-7.414L106.323,414.709z"/>
		</g>
		<path fill="#F39619" d="M272.998,429.91l-117.52-117.52c-10.39-10.391-27.295-10.393-37.69,0.004l-0.599,0.6
			c-5.033,5.033-7.807,11.729-7.807,18.844c0,7.119,2.772,13.814,7.806,18.846l117.521,117.52c0.001,0,0.001,0,0.001,0
			c5.194,5.193,12.017,7.791,18.842,7.791c6.824,0,13.651-2.598,18.85-7.795l0.599-0.6c5.033-5.033,7.807-11.727,7.807-18.844
			C280.804,441.637,278.031,434.946,272.998,429.91z"/>
		<path fill="#D78715" d="M272.998,429.91l-25.005-25.004c4.359,4.885,6.747,11.117,6.747,17.719c0,7.117-2.772,13.813-7.807,18.846
			l-0.599,0.6c-5.197,5.195-12.024,7.795-18.85,7.795c-6.826,0-13.647-2.596-18.842-7.791c0,0,0,0-0.001,0l26.063,26.133
			c0.001,0,0.001,0,0.001,0c5.194,5.193,12.017,7.791,18.842,7.791c6.824,0,13.651-2.6,18.85-7.797l0.599-0.6
			c5.033-5.031,7.807-11.727,7.807-18.846C280.802,441.639,278.031,434.946,272.998,429.91z"/>
	</g>
</g>
</svg>
